<svg xmlns="http://www.w3.org/2000/svg" xmlns:xlink="http://www.w3.org/1999/xlink" viewBox="0 0 728.69 396.08"><defs><linearGradient id="linear-gradient" x1="10.03" y1="206.98" x2="166.16" y2="186.64" gradientUnits="userSpaceOnUse"><stop offset="0" stop-color="#fdc871"></stop><stop offset="0.26" stop-color="#edab48"></stop><stop offset="0.54" stop-color="#ffefd8"></stop><stop offset="1" stop-color="#fdc871"></stop></linearGradient><linearGradient id="linear-gradient-2" x1="127.67" y1="151.9" x2="728.69" y2="151.9" gradientUnits="userSpaceOnUse"><stop offset="0" stop-color="#fdc871"></stop><stop offset="0.34" stop-color="#edab48"></stop><stop offset="0.74" stop-color="#ffefd8"></stop><stop offset="1" stop-color="#fdc871"></stop></linearGradient></defs><g id="Layer_2" data-name="Layer 2"><g id="Layer_1-2" data-name="Layer 1"><path fill="#ffffff" d="M24.65,15.85a5.24,5.24,0,1,1,6.25-4A5.24,5.24,0,0,1,24.65,15.85Zm24.21,8A5.24,5.24,0,1,0,41.8,26,5.24,5.24,0,0,0,48.86,23.81ZM63.12,40a5.23,5.23,0,1,0-7.39.32A5.22,5.22,0,0,0,63.12,40Zm9.6,19.31a5.23,5.23,0,1,0-7.23-1.61A5.23,5.23,0,0,0,72.72,59.28ZM77,80.41A5.23,5.23,0,1,0,70.42,77,5.23,5.23,0,0,0,77,80.41Zm-1.34,21.52a5.23,5.23,0,1,0-5.45-5A5.23,5.23,0,0,0,75.64,101.93Zm-6.87,20.44a5.24,5.24,0,1,0-4-6.25A5.24,5.24,0,0,0,68.77,122.37Zm-11.92,18a5.23,5.23,0,1,0-2.22-7.07A5.23,5.23,0,0,0,56.85,140.33ZM40.68,154.59a5.23,5.23,0,1,0-.31-7.4A5.22,5.22,0,0,0,40.68,154.59Zm-19.31,9.59A5.23,5.23,0,1,0,23,157,5.24,5.24,0,0,0,21.37,164.18ZM.24,168.45a5.23,5.23,0,1,0,3.43-6.56A5.23,5.23,0,0,0,.24,168.45ZM149.87,303.71a5.23,5.23,0,1,0,6.67,3.2A5.23,5.23,0,0,0,149.87,303.71Zm-4-18.57a5.23,5.23,0,1,0,7.06,2.23A5.23,5.23,0,0,0,145.87,285.14Zm-4.23-19.27a5.23,5.23,0,1,0,7.3,1.23A5.23,5.23,0,0,0,141.64,265.87Zm-11.27-15.32a5.23,5.23,0,1,0,7.4.2A5.24,5.24,0,0,0,130.37,250.55Zm-11.21-15.34a5.23,5.23,0,1,0,7.36-.83A5.23,5.23,0,0,0,119.16,235.21Zm-13.23-13.64a5.23,5.23,0,1,0,7.17-1.84A5.24,5.24,0,0,0,105.93,221.57Zm-15-11.66a5.24,5.24,0,1,0,6.85-2.82A5.25,5.25,0,0,0,90.93,209.91Zm-16.47-9.45a5.23,5.23,0,1,0,6.38-3.75A5.23,5.23,0,0,0,74.46,200.46Zm-17.64-7.08a5.24,5.24,0,1,0,5.8-4.59A5.23,5.23,0,0,0,56.82,193.38Zm-18.44-4.55a5.23,5.23,0,1,0,5.1-5.36A5.24,5.24,0,0,0,38.38,188.83Zm-18.9-1.93a5.24,5.24,0,1,0,4.31-6A5.22,5.22,0,0,0,19.48,186.9Zm-19,.71a5.23,5.23,0,1,0,3.42-6.56A5.23,5.23,0,0,0,.5,187.61ZM151.17,343.23a5.23,5.23,0,1,0,6.17,4.1A5.23,5.23,0,0,0,151.17,343.23ZM130.3,271.57a5.23,5.23,0,1,0,7.4.2A5.23,5.23,0,0,0,130.3,271.57Zm-11.2-15.35a5.23,5.23,0,1,0,7.35-.82A5.25,5.25,0,0,0,119.1,256.22Zm-13.23-13.63a5.23,5.23,0,1,0,7.17-1.84A5.23,5.23,0,0,0,105.87,242.59Zm-15-11.66a5.23,5.23,0,1,0,6.84-2.82A5.24,5.24,0,0,0,90.87,230.93Zm-16.48-9.46a5.23,5.23,0,1,0,6.39-3.74A5.24,5.24,0,0,0,74.39,221.47ZM56.76,214.4a5.23,5.23,0,1,0,5.8-4.6A5.24,5.24,0,0,0,56.76,214.4Zm-18.44-4.55a5.23,5.23,0,1,0,5.1-5.36A5.24,5.24,0,0,0,38.32,209.85Zm-18.9-1.94a5.23,5.23,0,1,0,4.3-6A5.23,5.23,0,0,0,19.42,207.91Zm-19,.71a5.23,5.23,0,1,0,3.43-6.56A5.23,5.23,0,0,0,.43,208.62ZM145.74,327.17a5.23,5.23,0,1,0,7.06,2.24A5.23,5.23,0,0,0,145.74,327.17Zm-13.67-36a5.24,5.24,0,1,0,7.4.21A5.23,5.23,0,0,0,132.07,291.21Zm-13-14a5.24,5.24,0,1,0,7.36-.82A5.24,5.24,0,0,0,119,277.24ZM105.8,263.61a5.23,5.23,0,1,0,7.17-1.84A5.24,5.24,0,0,0,105.8,263.61ZM90.8,252a5.24,5.24,0,1,0,6.85-2.82A5.23,5.23,0,0,0,90.8,252Zm-16.47-9.46a5.23,5.23,0,1,0,6.38-3.74A5.24,5.24,0,0,0,74.33,242.49ZM56.7,235.42a5.23,5.23,0,1,0,5.8-4.6A5.22,5.22,0,0,0,56.7,235.42Zm-18.45-4.55a5.24,5.24,0,1,0,5.11-5.36A5.23,5.23,0,0,0,38.25,230.87Zm-18.9-1.94a5.24,5.24,0,1,0,4.31-6A5.24,5.24,0,0,0,19.35,228.93Zm-19,.71a5.23,5.23,0,1,0,3.43-6.56A5.23,5.23,0,0,0,.37,229.64ZM151.05,385.71a5.23,5.23,0,1,0,6.16,4.1A5.23,5.23,0,0,0,151.05,385.71Zm-19-72.79a5.23,5.23,0,1,0,7.4.2A5.23,5.23,0,0,0,132.07,312.92ZM119,298.26a5.23,5.23,0,1,0,7.36-.83A5.24,5.24,0,0,0,119,298.26Zm-13.23-13.63a5.23,5.23,0,1,0,7.17-1.84A5.23,5.23,0,0,0,105.74,284.63ZM90.74,273a5.24,5.24,0,1,0,6.84-2.82A5.23,5.23,0,0,0,90.74,273Zm-16.48-9.46a5.23,5.23,0,1,0,6.39-3.75A5.23,5.23,0,0,0,74.26,263.51Zm-17.63-7.07a5.23,5.23,0,1,0,5.8-4.6A5.24,5.24,0,0,0,56.63,256.44Zm-18.44-4.55a5.23,5.23,0,1,0,5.1-5.36A5.23,5.23,0,0,0,38.19,251.89ZM19.29,250a5.24,5.24,0,1,0,4.31-6A5.24,5.24,0,0,0,19.29,250Zm-19,.71a5.23,5.23,0,1,0,3.42-6.56A5.23,5.23,0,0,0,.31,250.66Zm145.3,118.55a5.23,5.23,0,1,0,7.06,2.23A5.23,5.23,0,0,0,145.61,369.21Zm-6.54-17.84a5.23,5.23,0,1,0,7.3,1.23A5.24,5.24,0,0,0,139.07,351.37Zm-9-16.75a5.23,5.23,0,1,0,7.4.21A5.23,5.23,0,0,0,130.11,334.62Zm-11.2-15.34a5.23,5.23,0,1,0,7.35-.83A5.22,5.22,0,0,0,118.91,319.28Zm-13.23-13.63a5.23,5.23,0,1,0,7.17-1.85A5.22,5.22,0,0,0,105.68,305.65ZM90.68,294a5.23,5.23,0,1,0,6.84-2.83A5.23,5.23,0,0,0,90.68,294ZM74.2,284.53a5.23,5.23,0,1,0,6.38-3.75A5.23,5.23,0,0,0,74.2,284.53Zm-17.63-7.07a5.23,5.23,0,1,0,5.8-4.6A5.24,5.24,0,0,0,56.57,277.46Zm-18.45-4.55a5.24,5.24,0,1,0,5.11-5.37A5.24,5.24,0,0,0,38.12,272.91ZM19.23,271a5.23,5.23,0,1,0,4.3-6A5.23,5.23,0,0,0,19.23,271Zm-19,.71a5.23,5.23,0,1,0,3.43-6.56A5.24,5.24,0,0,0,.24,271.68Zm10-126.4a5.22,5.22,0,1,0-3.63,6.42A5.21,5.21,0,0,0,10.26,145.28Zm.06-40.07a5.19,5.19,0,1,0-4,6.14A5.21,5.21,0,0,0,10.32,105.21Zm0-20a5.19,5.19,0,1,0-4.22,6A5.19,5.19,0,0,0,10.35,85.17ZM29,83.76a5.19,5.19,0,1,0-4.22,6A5.19,5.19,0,0,0,29,83.76ZM9.17,62.47a5.19,5.19,0,1,0-.55,7.32A5.19,5.19,0,0,0,9.17,62.47Zm19.25-4.08A5.2,5.2,0,1,0,21.56,61,5.21,5.21,0,0,0,28.42,58.39Zm8.95,20.53a5.2,5.2,0,1,0-7.26-1.13A5.2,5.2,0,0,0,37.37,78.92Zm-2.51,22.25a5.2,5.2,0,1,0-5.73-4.61A5.21,5.21,0,0,0,34.86,101.17Zm-13.3,18a5.2,5.2,0,1,0-2.65-6.86A5.2,5.2,0,0,0,21.56,119.19ZM1,129.54a5.2,5.2,0,1,0,1.13-7.27A5.19,5.19,0,0,0,1,129.54Zm9.37-84.45a5.2,5.2,0,1,0-4.62,5.73A5.2,5.2,0,0,0,10.41,45.09Zm19.84-11a5.21,5.21,0,1,0-6.43,3.61A5.21,5.21,0,0,0,30.25,34.13ZM45.77,49.44a5.22,5.22,0,1,0-7.28,1.19A5.21,5.21,0,0,0,45.77,49.44Zm9.34,19.7a5.21,5.21,0,1,0-7.24-1.37A5.22,5.22,0,0,0,55.11,69.14Zm2,21.7a5.22,5.22,0,1,0-6.34-3.77A5.23,5.23,0,0,0,57.16,90.84Zm-5.5,21.1A5.22,5.22,0,1,0,47,106.23,5.22,5.22,0,0,0,51.66,111.94ZM39.27,129.88a5.22,5.22,0,1,0-2.43-7A5.21,5.21,0,0,0,39.27,129.88ZM21.5,142.5a5.22,5.22,0,1,0,.09-7.38A5.21,5.21,0,0,0,21.5,142.5ZM10.44,25.05a5.21,5.21,0,1,0-4.82,5.59A5.22,5.22,0,0,0,10.44,25.05Zm0-20a5.23,5.23,0,1,0-5,5.45A5.24,5.24,0,0,0,10.46,5Z"></path><path fill="#ffffff" d="M132,131.8a4,4,0,0,1-4.36-4.36V34.23A4,4,0,0,1,132,29.88h8.27a4,4,0,0,1,4.36,4.35V68.79l39.49-17.57v-17a4,4,0,0,1,4.36-4.35h8.27a4,4,0,0,1,4.36,4.35v93.21a4,4,0,0,1-4.36,4.36h-8.27a4,4,0,0,1-4.36-4.36V96.67l-39.49,17.42v13.35a4,4,0,0,1-4.36,4.36Zm12.63-36.58,39.49-17.43V70.24L144.66,87.66Zm73.9-61a4,4,0,0,1,4.36-4.35h8.28a4,4,0,0,1,4.35,4.35v93.21a4,4,0,0,1-4.35,4.36h-8.28a4,4,0,0,1-4.36-4.36Zm38,2.18c-1.06-1.93-1.26-3.51-.58-4.72s2.13-1.81,4.35-1.81h35a32.83,32.83,0,0,1,12.92,2.53,33.64,33.64,0,0,1,10.46,7,31.75,31.75,0,0,1,7,10.52A33.54,33.54,0,0,1,328.33,63,30.92,30.92,0,0,1,323,81.13a33.92,33.92,0,0,1-14.8,11.76q5.07,9.45,10.31,18.58t10.73,18.3l.73,1c.29.67.1,1-.58,1H313.08a4.47,4.47,0,0,1-3.92-2.18l-19-34h-18.3v31.79a4.28,4.28,0,0,1-1.16,3.2,4.32,4.32,0,0,1-3.19,1.16h-8.27a4,4,0,0,1-4.36-4.36V82.58a4,4,0,0,1,4.36-4.36h21ZM282.44,47.3q4.21,7.85,8.57,15.25t8.71,15.24a14.59,14.59,0,0,0,8.57-5.3,15,15,0,0,0,3-9.36,15.81,15.81,0,0,0-4.29-11.25q-4.28-4.59-11.68-4.58ZM343.28,31a4.31,4.31,0,0,1,3.2-1.16H406.3a4.31,4.31,0,0,1,3.19,1.17,4.38,4.38,0,0,1,1.16,3.22v8.64a4.4,4.4,0,0,1-1.16,3.22,4.31,4.31,0,0,1-3.19,1.17H359.1V66H395a4,4,0,0,1,4.35,4.35V79.1A4,4,0,0,1,395,83.45H359.1v30.93h47.2a4,4,0,0,1,4.35,4.35v8.71a4,4,0,0,1-4.35,4.36H346.48a4,4,0,0,1-4.36-4.36V34.23A4.32,4.32,0,0,1,343.28,31ZM184.22,177.94q-1.16-2.76,0-4.35c.78-1.07,2.13-1.6,4.07-1.6h32.6a35.27,35.27,0,0,1,10.93,1.67,26.92,26.92,0,0,1,9.05,4.94,22.91,22.91,0,0,1,6.15,8.13,26.15,26.15,0,0,1,2.25,11.11,20.84,20.84,0,0,1-1.38,8,42.81,42.81,0,0,1-3.85,7.11,27.38,27.38,0,0,1,10.25,12.13,38.87,38.87,0,0,1,1.29,27.8,34.61,34.61,0,0,1-5.66,10.68,28,28,0,0,1-9.07,7.55,25.89,25.89,0,0,1-12.2,2.83H187.71a4,4,0,0,1-4.36-4.37V212.22a4,4,0,0,1,4.36-4.37l8.71.15Zm44.43,78.55a9.81,9.81,0,0,0,5.38-1.38,10.15,10.15,0,0,0,3.48-3.7,17.76,17.76,0,0,0,1.89-5.08,28,28,0,0,0,.58-5.67,16,16,0,0,0-.88-5,20.62,20.62,0,0,0-2.39-5,14.7,14.7,0,0,0-3.63-3.85,7.42,7.42,0,0,0-4.43-1.52H200.34v31.21Zm-21.34-67.08q1.89,4.58,3.77,9.22t3.93,9.22h6a12,12,0,0,0,8.2-2.71,9.19,9.19,0,0,0,3.12-7.29q0-4.72-3.12-6.58a15.88,15.88,0,0,0-8.2-1.86Zm98.8,84.51a33.79,33.79,0,0,1-14.62-3.2,37.44,37.44,0,0,1-11.71-8.57A40.17,40.17,0,0,1,272,249.74,39.06,39.06,0,0,1,269.16,235V176.35a4,4,0,0,1,4.36-4.36h8.27a4,4,0,0,1,4.36,4.36V235a23.45,23.45,0,0,0,8.42,17.72A18.38,18.38,0,0,0,306,256.49a17.27,17.27,0,0,0,7.84-1.81,19.67,19.67,0,0,0,6.24-4.87,24.13,24.13,0,0,0,4.14-6.89,21.24,21.24,0,0,0,1.52-7.92V176.35a4.32,4.32,0,0,1,1.18-3.2,4.38,4.38,0,0,1,3.22-1.16h8.2a4.38,4.38,0,0,1,3.22,1.16,4.31,4.31,0,0,1,1.17,3.2V235A39.68,39.68,0,0,1,340,249.6,40.23,40.23,0,0,1,332.37,262a37.59,37.59,0,0,1-11.64,8.64A33.14,33.14,0,0,1,306.11,273.92Zm56.41-100.25c.78-1.12,2.13-1.68,4.06-1.68h27.88a44.16,44.16,0,0,1,19.09,4.14,48.5,48.5,0,0,1,15.25,11.18,51.82,51.82,0,0,1,10.09,16.26A52.45,52.45,0,0,1,442.52,223,53.24,53.24,0,0,1,439,242.19a51.1,51.1,0,0,1-10,16.26A49.34,49.34,0,0,1,413.7,269.7a43.88,43.88,0,0,1-19.24,4.22H365.72a4,4,0,0,1-4.36-4.36V222.08q0-10.16,2.47-10.16,2.31,0,5.95,8.42l8.27,19.6a7.65,7.65,0,0,1,.29,1.74v14.81h16.12a28.44,28.44,0,0,0,12.42-2.75,30.75,30.75,0,0,0,9.87-7.46,35.43,35.43,0,0,0,6.46-10.72,34.88,34.88,0,0,0,0-25.07,35.67,35.67,0,0,0-6.46-10.72,32,32,0,0,0-9.8-7.53,27.62,27.62,0,0,0-12.49-2.83h-8.85l21.48,52.27a4.4,4.4,0,0,1,.08,3.41,4.32,4.32,0,0,1-2.69,2.26l-7.7,2.75a3.8,3.8,0,0,1-3.26,0,4.51,4.51,0,0,1-2.25-2.32L362.52,178Q361.37,175.37,362.52,173.67Zm94.08,0c.78-1.12,2.13-1.68,4.07-1.68h27.88a44.22,44.22,0,0,1,19.09,4.14,48.5,48.5,0,0,1,15.25,11.18A52.9,52.9,0,0,1,536.61,223a53,53,0,0,1-3.56,19.24,50.92,50.92,0,0,1-10,16.26,49.34,49.34,0,0,1-15.25,11.25,43.86,43.86,0,0,1-19.23,4.22H459.8a4,4,0,0,1-4.36-4.36V222.08q0-10.16,2.47-10.16t5.95,8.42l8.28,19.6a8.27,8.27,0,0,1,.29,1.74v14.81h16.12A28.39,28.39,0,0,0,501,253.74a30.75,30.75,0,0,0,9.87-7.46,35.23,35.23,0,0,0,6.46-10.72,34.88,34.88,0,0,0,0-25.07,35.47,35.47,0,0,0-6.46-10.72,31.87,31.87,0,0,0-9.8-7.53,27.61,27.61,0,0,0-12.48-2.83h-8.86l21.48,52.27a4.36,4.36,0,0,1,.08,3.41,4.29,4.29,0,0,1-2.68,2.26l-7.7,2.75a3.82,3.82,0,0,1-3.27,0,4.55,4.55,0,0,1-2.25-2.32L456.6,178Q455.44,175.37,456.6,173.67Zm96,100.25a4,4,0,0,1-4.36-4.36V176.35a4,4,0,0,1,4.36-4.36h8.27a4,4,0,0,1,4.36,4.36V210.9l39.49-17.57v-17a4,4,0,0,1,4.36-4.36h8.27a4,4,0,0,1,4.36,4.36v93.21a4,4,0,0,1-4.36,4.36h-8.27a4,4,0,0,1-4.36-4.36V238.78L565.21,256.2v13.36a4,4,0,0,1-4.36,4.36Zm12.63-36.59L604.7,219.9v-7.55l-39.49,17.42Zm69.11,34.92q-1.17-1.68,0-4.29l38.18-93.21a4.12,4.12,0,0,1,4.07-2.76h9.29a4.12,4.12,0,0,1,4.07,2.76L728.11,268q1.17,2.61,0,4.29c-.77,1.11-2.13,1.67-4.06,1.67h-9a4,4,0,0,1-2.4-.8,5.41,5.41,0,0,1-1.67-2l-29.76-72.74-23.67,58.07h38a4.1,4.1,0,0,1,4.06,2.76l3.49,8.71q1.15,2.61,0,4.29c-.77,1.11-2.13,1.67-4.07,1.67H638.38C636.44,273.92,635.09,273.36,634.32,272.25Z"></path></g></g></svg>